<?xml version="1.0" encoding="UTF-8"?>
<svg id="Layer_1" data-name="Layer 1" xmlns="http://www.w3.org/2000/svg" viewBox="0 0 185 55">
  <defs>
    <style>
      .cls-1 {
        fill: #fff;
      }
    </style>
  </defs>
  <path class="cls-1" d="m78.03,13.89h0c0,2.31,1.87,4.17,4.17,4.17h8.59v.03h11.74c2.31,0,4.17-1.87,4.17-4.17v-.03c0-2.31-1.87-4.17-4.17-4.17h-20.34c-2.31,0-4.17,1.87-4.17,4.17Zm10.34,12.62h-4.16c-3.41,0-6.18,2.77-6.18,6.18v10.16c0,2.86,2.32,5.17,5.17,5.17h0c2.86,0,5.17-2.32,5.17-5.17v-5.75c0-1.22.99-2.21,2.21-2.21h9.76c2.31,0,4.17-1.87,4.17-4.17h0c0-2.32-1.88-4.2-4.2-4.2h-11.94Z"/>
  <path class="cls-1" d="m60.35,9.71h-12.45c-2.36,0-4.27,1.91-4.27,4.27h0c0,2.36,1.91,4.27,4.27,4.27h11.82c4.28,0,6.43,2.08,6.43,5.64s-2.14,5.58-6.43,5.58h-10.16c-3.28,0-5.93,2.66-5.93,5.93v7.45c0,2.86,2.32,5.17,5.17,5.17h0c2.86,0,5.17-2.32,5.17-5.17v-3.85c0-.55.44-.99.99-.99h5.39c9.98,0,16.25-5.42,16.25-14.12s-6.27-14.17-16.25-14.17Z"/>
  <path class="cls-1" d="m125.12,9.71h-12.45c-2.36,0-4.27,1.91-4.27,4.27h0c0,2.36,1.91,4.27,4.27,4.27h11.82c4.28,0,6.43,2.08,6.43,5.64s-2.14,5.58-6.43,5.58h-10.16c-3.28,0-5.93,2.66-5.93,5.93v7.45c0,2.86,2.32,5.17,5.17,5.17h0c2.86,0,5.17-2.32,5.17-5.17v-3.85c0-.55.44-.99.99-.99h5.39c9.98,0,16.25-5.42,16.25-14.12s-6.27-14.17-16.25-14.17Z"/>
</svg>