<?xml version="1.0" encoding="utf-8"?>
<!-- Generator: Adobe Illustrator 16.0.0, SVG Export Plug-In . SVG Version: 6.00 Build 0)  -->
<!DOCTYPE svg PUBLIC "-//W3C//DTD SVG 1.1//EN" "http://www.w3.org/Graphics/SVG/1.1/DTD/svg11.dtd">
<svg version="1.1" id="Layer_1" xmlns="http://www.w3.org/2000/svg" xmlns:xlink="http://www.w3.org/1999/xlink" x="0px" y="0px"
	 width="612px" height="792px" viewBox="0 0 612 792" enable-background="new 0 0 612 792" xml:space="preserve">
<g display="none">
	<circle display="inline" fill="#FFFFFF" cx="-43.037" cy="123.633" r="8"/>
	<g display="inline">
		<path fill="#EEB11E" d="M-44.858,121.729L-44.858,121.729c0,0.293,0.237,0.53,0.53,0.53h1.092v0.003h1.492
			c0.293,0,0.53-0.237,0.53-0.53v-0.003c0-0.293-0.237-0.53-0.53-0.53h-2.583C-44.621,121.199-44.858,121.437-44.858,121.729
			 M-43.544,123.333h-0.529c-0.434,0-0.785,0.352-0.785,0.785v1.291c0,0.363,0.294,0.657,0.657,0.657
			c0.363,0,0.657-0.294,0.657-0.657v-0.73c0-0.155,0.126-0.282,0.281-0.282h1.24c0.293,0,0.53-0.237,0.53-0.53
			c0-0.295-0.239-0.534-0.534-0.534L-43.544,123.333L-43.544,123.333z"/>
		<path fill="#0D7FAE" d="M-47.104,121.199h-1.582c-0.3,0-0.542,0.243-0.542,0.542c0,0.299,0.243,0.542,0.542,0.542h1.502
			c0.544,0,0.816,0.264,0.816,0.716c0,0.445-0.272,0.709-0.816,0.709h-1.291c-0.417,0-0.754,0.338-0.754,0.754v0.946
			c0,0.363,0.294,0.657,0.657,0.657s0.657-0.294,0.657-0.657v-0.49c0-0.069,0.056-0.125,0.125-0.125h0.684
			c1.268,0,2.064-0.688,2.064-1.794C-45.04,121.888-45.836,121.199-47.104,121.199"/>
		<path fill="#0D7FAE" d="M-38.876,121.199h-1.582c-0.3,0-0.542,0.243-0.542,0.542c0,0.299,0.243,0.542,0.542,0.542h1.502
			c0.544,0,0.816,0.264,0.816,0.716c0,0.445-0.272,0.709-0.816,0.709h-1.291c-0.417,0-0.754,0.338-0.754,0.754v0.946
			c0,0.363,0.294,0.657,0.657,0.657c0.363,0,0.657-0.294,0.657-0.657v-0.49c0-0.069,0.057-0.125,0.125-0.125h0.685
			c1.268,0,2.064-0.688,2.064-1.794C-36.812,121.888-37.608,121.199-38.876,121.199"/>
	</g>
</g>
<circle display="none" fill="#FFFFFF" cx="-113" cy="-28" r="8"/>
<rect x="559.75" y="-158.5" display="none" fill="#FFFFFF" width="300" height="80"/>
<g>
	<text transform="matrix(1 0 0 1.0943 232.5015 369.4424)"><tspan x="0" y="0" fill="#010101" font-family="'Montserrat-Bold'" font-size="9.944">P</tspan><tspan x="6.832" y="0" fill="#010101" font-family="'Montserrat-Bold'" font-size="9.944">A</tspan><tspan x="14.11" y="0" fill="#010101" font-family="'Montserrat-Bold'" font-size="9.944">T</tspan><tspan x="20.256" y="0" fill="#010101" font-family="'Montserrat-Bold'" font-size="9.944">H</tspan><tspan x="28.261" y="0" fill="#010101" font-family="'Montserrat-Bold'" font-size="9.944">W</tspan><tspan x="39.458" y="0" fill="#010101" font-family="'Montserrat-Bold'" font-size="9.944">A</tspan><tspan x="46.657" y="0" fill="#010101" font-family="'Montserrat-Bold'" font-size="9.944">YS </tspan><tspan x="62.537" y="0" fill="#010101" font-family="'Montserrat-Bold'" font-size="9.944">F</tspan><tspan x="68.832" y="0" fill="#010101" font-family="'Montserrat-Bold'" font-size="9.944">OUN</tspan><tspan x="93.095" y="0" fill="#010101" font-family="'Montserrat-Bold'" font-size="9.944">D</tspan><tspan x="101.219" y="0" fill="#010101" font-family="'Montserrat-Bold'" font-size="9.944">A</tspan><tspan x="108.499" y="0" fill="#010101" font-family="'Montserrat-Bold'" font-size="9.944">TION </tspan><tspan x="137.147" y="0" fill="#010101" font-family="'Montserrat-Bold'" font-size="9.944">F</tspan><tspan x="143.441" y="0" fill="#010101" font-family="'Montserrat-Bold'" font-size="9.944">OR THE POOR</tspan></text>
	<text transform="matrix(1 0 0 1.0943 251.564 380.4639)"><tspan x="0" y="0" fill="#010101" font-family="'Montserrat-Regular'" font-size="9.944">UN</tspan><tspan x="15.96" y="0" fill="#010101" font-family="'Montserrat-Regular'" font-size="9.944">L</tspan><tspan x="21.688" y="0" fill="#010101" font-family="'Montserrat-Regular'" font-size="9.944">OCKING HUMAN P</tspan><tspan x="116.045" y="0" fill="#010101" font-family="'Montserrat-Regular'" font-size="9.944">O</tspan><tspan x="124.289" y="0" fill="#010101" font-family="'Montserrat-Regular'" font-size="9.944">TENTIA</tspan><tspan x="160.574" y="0" fill="#010101" font-family="'Montserrat-Regular'" font-size="9.944">L</tspan><tspan x="166.361" y="0" fill="#010101" font-family="'Montserrat-Regular'" font-size="9.944">S</tspan></text>
	<g>
		<path fill="#EEB11E" d="M179.386,355.286L179.386,355.286c0,1.689,1.37,3.059,3.059,3.059h6.299v0.02h8.604
			c1.691,0,3.059-1.369,3.059-3.059v-0.02c0-1.689-1.368-3.059-3.059-3.059h-14.903
			C180.756,352.227,179.386,353.596,179.386,355.286 M186.967,364.536h-3.051c-2.501,0-4.529,2.028-4.529,4.528v7.448
			c0,2.093,1.696,3.791,3.789,3.791c2.096,0,3.792-1.698,3.792-3.791v-4.211c0-0.896,0.726-1.625,1.622-1.625h7.151
			c1.69,0,3.059-1.369,3.059-3.057c0-1.701-1.377-3.082-3.079-3.082h-8.753V364.536z"/>
		<path fill="#0D7FAE" d="M166.43,352.227h-9.123c-1.73,0-3.129,1.399-3.129,3.129c0,1.726,1.399,3.129,3.129,3.129h8.664
			c3.141,0,4.709,1.523,4.709,4.129c0,2.566-1.568,4.091-4.709,4.091h-7.444c-2.403,0-4.349,1.948-4.349,4.351v5.456
			c0,2.093,1.698,3.791,3.792,3.791c2.093,0,3.791-1.698,3.791-3.791v-2.825c0-0.401,0.324-0.724,0.724-0.724h3.946
			c7.315,0,11.909-3.972,11.909-10.349C178.338,356.198,173.745,352.227,166.43,352.227"/>
		<path fill="#0D7FAE" d="M213.896,352.227h-9.123c-1.73,0-3.131,1.399-3.131,3.129c0,1.726,1.401,3.129,3.131,3.129h8.663
			c3.141,0,4.709,1.523,4.709,4.129c0,2.566-1.568,4.091-4.709,4.091h-7.445c-2.401,0-4.349,1.948-4.349,4.351v5.456
			c0,2.093,1.696,3.791,3.792,3.791c2.093,0,3.789-1.698,3.789-3.791v-2.825c0-0.401,0.327-0.724,0.724-0.724h3.95
			c7.315,0,11.909-3.972,11.909-10.349C225.806,356.198,221.211,352.227,213.896,352.227"/>
	</g>
</g>
</svg>
